<svg version="1.2" baseProfile="tiny-ps" xmlns="http://www.w3.org/2000/svg" viewBox="0 0 512 512" width="512" height="512">
	<title>infinite-mathematical-symbol</title>
	<style>
		tspan { white-space:pre }
		.shp0 { fill: #0a3902 } 
	</style>
	<path id="Path 0" class="shp0" d="M130 132.65C136.32 132.89 146 134 151.5 135.12C157 136.25 166 138.95 171.5 141.14C177 143.33 184.65 146.93 188.5 149.15C192.35 151.37 198.43 155.25 202 157.77C205.57 160.29 213 166.9 218.5 172.44C224 177.99 230.44 185.44 232.81 189.01C235.17 192.58 237.58 197.3 238.16 199.5C238.74 201.7 238.99 205.53 238.72 208C238.45 210.47 237.53 214.07 236.66 216C235.8 217.93 233.5 221.07 231.55 223C229.61 224.93 226.1 227.26 223.76 228.19C221.42 229.13 217.47 229.91 215 229.93C212.53 229.95 208.7 229.42 206.5 228.75C204.14 228.03 200.66 225.66 198 222.95C195.53 220.43 190.13 214.61 186 210C181.88 205.39 175.8 199.64 172.5 197.2C169.2 194.77 163.46 191.26 159.75 189.39C156.04 187.53 149.51 184.99 145.25 183.76C138.95 181.94 135.08 181.52 124.5 181.56C112.96 181.59 110.6 181.91 103.5 184.35C99.1 185.87 92.35 188.98 88.5 191.26C84.65 193.53 77.87 199.02 73.43 203.45C68.99 207.88 63.47 214.43 61.17 218C58.86 221.57 55.63 227.99 53.98 232.25C52.34 236.51 50.55 243.15 50 247C49.33 251.68 49.33 256.57 50 261.75C50.56 266.01 51.97 272.43 53.14 276C54.32 279.57 56.62 285.2 58.26 288.5C59.9 291.8 63.14 297.2 65.47 300.5C67.8 303.8 72.85 309.43 76.68 313C80.51 316.57 86.76 321.17 90.57 323.2C94.38 325.24 101.1 327.83 105.5 328.96C109.9 330.1 116.42 331.02 120 331.02C123.58 331.02 129.88 330.17 134 329.12C138.13 328.08 144.43 325.91 148 324.3C151.57 322.69 157.88 319.1 162 316.32C166.13 313.55 173.78 307.47 179 302.81C184.22 298.16 193.53 288.76 199.69 281.92C205.84 275.09 219.72 258.7 230.54 245.5C241.35 232.3 255.5 215.43 261.98 208C268.45 200.57 278.64 189.77 284.63 184C290.61 178.22 299.32 170.52 304 166.88C308.68 163.23 315.65 158.22 319.5 155.73C323.35 153.24 330.55 149.18 335.5 146.71C340.45 144.25 348.55 140.87 353.5 139.2C358.45 137.54 366.55 135.38 371.5 134.41C377.94 133.14 385.19 132.64 397 132.65C409.93 132.67 415.66 133.13 423.5 134.79C429 135.95 436.88 138.1 441 139.57C445.13 141.04 450.75 143.37 453.5 144.75C456.25 146.13 461.6 149.33 465.38 151.88C469.17 154.42 475.47 159.88 479.38 164C483.3 168.13 488.14 173.97 490.15 177C492.15 180.03 495.38 185.65 497.32 189.5C499.26 193.35 502.21 200.55 503.87 205.5C505.53 210.45 507.88 219.68 509.09 226C510.49 233.3 511.44 242.79 511.69 252C511.91 259.98 511.68 267.4 511.18 268.5C510.68 269.6 509.51 274.55 508.57 279.5C507.64 284.45 505.52 292.55 503.86 297.5C502.21 302.45 499.4 309.65 497.63 313.5C495.85 317.35 491.78 324.55 488.56 329.5C485.35 334.45 479.3 342.03 475.11 346.34C470.93 350.66 463.68 356.76 459 359.91C454.32 363.05 446.68 367.11 442 368.92C437.32 370.73 429.45 373.11 424.5 374.22C417.71 375.75 411.81 376.25 400.5 376.27C390.56 376.29 382.13 375.71 375.5 374.55C370 373.58 360.77 371.22 355 369.3C349.23 367.38 340 363.5 334.5 360.67C329 357.85 320.9 352.86 316.5 349.6C312.1 346.33 305.66 341.15 302.18 338.08C298.71 335.01 292.11 328.23 287.53 323C282.94 317.77 278.19 311.25 276.97 308.5C275.21 304.55 274.83 302.12 275.12 296.93C275.42 291.78 276.16 289.29 278.53 285.43C280.73 281.85 283.06 279.69 287.03 277.55C291.49 275.14 293.7 274.6 299 274.6C304.18 274.59 306.51 275.15 310.5 277.32C313.79 279.11 318.76 283.71 325.05 290.77C330.33 296.71 338.36 304.34 343.05 307.86C347.7 311.35 355.55 316.2 360.5 318.62C365.45 321.04 373.1 323.92 377.5 325.03C381.9 326.13 389.77 327.31 395 327.65C400.6 328.01 407.37 327.79 411.5 327.11C415.35 326.48 421.88 324.35 426 322.39C431.51 319.76 435.23 317.04 440 312.12C444.85 307.12 447.83 302.76 451.75 294.96C454.78 288.93 458.12 280.26 459.64 274.5C461.81 266.23 462.27 262.34 462.26 252C462.25 242.66 461.68 237.1 460.03 230C458.81 224.78 456.17 217.13 454.16 213.01C451.93 208.45 448.16 203.03 444.5 199.15C441.2 195.64 435.8 191.28 432.5 189.45C429.2 187.62 423.13 185.18 419 184.01C414.62 182.78 406.93 181.65 400.5 181.31C392.16 180.86 387.45 181.14 381 182.44C376.32 183.39 369.13 185.46 365 187.04C360.88 188.62 353.68 192.3 349 195.21C344.32 198.13 337.13 203.26 333 206.63C328.88 210 319.64 218.77 312.48 226.13C305.32 233.48 292.72 247.63 284.48 257.58C276.24 267.52 263.38 283.04 255.91 292.08C248.44 301.11 237.41 313.85 231.41 320.38C225.41 326.92 215.55 336.52 209.5 341.73C203.45 346.94 194.45 353.91 189.5 357.22C184.55 360.52 176.45 365.15 171.5 367.51C166.55 369.87 158.68 373 154 374.47C149.32 375.94 140.55 377.82 134.5 378.64C127.26 379.63 120.43 379.92 114.5 379.49C109.55 379.13 102.35 378.24 98.5 377.52C94.65 376.79 88.58 375.21 85 374.02C81.42 372.83 74.67 369.94 70 367.61C65.33 365.28 58.8 361.4 55.5 359C52.2 356.59 47.11 352.57 44.19 350.06C41.27 347.55 36.06 342.13 32.61 338C29.16 333.88 24.82 328.25 22.97 325.5C21.11 322.75 17.25 315.77 14.39 310C11.53 304.23 8.06 295.9 6.67 291.5C5.29 287.1 3.64 280.35 2.99 276.5C2.35 272.65 1.41 268.71 0.91 267.75C0.41 266.79 0 260.82 0 254.5C0 248.18 0.4 242.21 0.89 241.25C1.38 240.29 2.32 236.57 2.97 233C3.62 229.43 5.28 223.13 6.66 219C8.04 214.88 10.9 207.9 13.02 203.5C15.14 199.1 19.27 191.9 22.19 187.51C25.11 183.11 32 174.96 37.5 169.4C43 163.83 50.88 157.03 55 154.27C59.13 151.52 66.1 147.44 70.5 145.2C74.9 142.96 82.1 139.96 86.5 138.54C90.9 137.11 98.1 135.3 102.5 134.5C106.9 133.71 112.3 132.87 114.5 132.63C116.7 132.4 123.67 132.4 130 132.65Z" />
</svg>