<svg version="1.2" baseProfile="tiny-ps" xmlns="http://www.w3.org/2000/svg" viewBox="0 0 512 250" width="512" height="250">
	<title>infinite-mathematical-symbol</title>
	<style>
		tspan { white-space:pre }
		.shp0 { fill: #02490f } 
	</style>
	<path id="Path 0" class="shp0" d="M123 0.13C124.92 0.05 131.22 0.46 137 1.04C142.78 1.62 150.2 2.77 153.5 3.6C156.8 4.42 162.88 6.21 167 7.58C171.13 8.95 178.21 11.96 182.74 14.28C187.27 16.6 194.92 21.28 199.74 24.68C204.56 28.07 212.52 34.82 217.44 39.68C222.36 44.53 228.9 51.88 231.97 56C235.32 60.49 238.11 65.51 238.93 68.5C239.75 71.5 240.04 75.2 239.65 77.75C239.29 80.09 238.16 83.69 237.13 85.75C236.1 87.81 233.62 90.96 231.63 92.75C229.63 94.54 226.54 96.74 224.75 97.64C222.96 98.55 218.8 99.48 215.5 99.72C210.37 100.1 208.7 99.75 204 97.33C200.02 95.28 197.12 92.7 193.52 88C190.78 84.42 185.82 78.8 182.51 75.5C179.19 72.2 172.89 67.13 168.49 64.24C164.1 61.35 156.9 57.68 152.5 56.1C148.1 54.52 140.9 52.65 136.5 51.96C131.75 51.21 125.05 50.93 120 51.28C115.33 51.61 108.35 52.85 104.5 54.05C100.65 55.25 95.25 57.35 92.5 58.72C89.75 60.09 84.35 63.6 80.5 66.53C76.65 69.46 71.9 73.8 69.94 76.18C67.98 78.56 65.01 82.53 63.33 85C61.64 87.47 59.13 91.75 57.74 94.5C56.35 97.25 54.17 102.88 52.9 107C51.11 112.78 50.6 116.68 50.68 124C50.74 130.01 51.51 136.26 52.77 141C53.87 145.13 56.35 151.88 58.28 156C60.21 160.13 64.47 167.1 67.75 171.5C71.02 175.9 76.35 181.63 79.6 184.24C82.84 186.85 88.65 190.55 92.5 192.46C96.35 194.36 102.76 196.62 106.75 197.46C110.74 198.31 116.81 199.01 120.25 199.01C123.69 199.02 130.1 198.11 134.5 197C138.9 195.88 145.88 193.36 150 191.39C154.13 189.43 160.87 185.5 164.98 182.66C169.1 179.82 177.59 172.55 183.86 166.5C190.13 160.45 199.4 150.78 204.46 145C209.52 139.22 220.81 125.72 229.54 115C238.27 104.28 250.66 89.42 257.08 82C263.49 74.58 274.11 63.1 280.67 56.5C287.23 49.9 296.85 41.09 302.05 36.93C307.25 32.76 314.2 27.54 317.5 25.31C320.8 23.09 327.32 19.21 332 16.68C336.68 14.16 343.65 10.89 347.5 9.42C351.35 7.95 358.32 5.72 363 4.47C367.68 3.22 377.06 1.65 383.85 0.99C393.27 0.06 399.08 0.04 408.35 0.91C415.03 1.53 424.32 2.96 429 4.07C433.68 5.19 440.88 7.47 445 9.13C449.13 10.79 455.2 13.77 458.5 15.75C461.8 17.73 467.2 21.47 470.5 24.06C473.8 26.65 478.76 31.41 481.53 34.64C484.3 37.86 487.95 42.3 489.65 44.5C491.35 46.7 494.8 52.33 497.32 57C499.83 61.67 503.24 69.55 504.9 74.5C506.56 79.45 508.83 89.13 509.96 96C511.29 104.15 512 113.19 512.01 122C512.02 129.43 511.36 139.32 510.55 144C509.74 148.68 507.91 156.55 506.49 161.5C505.06 166.45 501.41 175.68 498.36 182C495.32 188.32 490.51 196.88 487.67 201C484.83 205.13 478.9 212.12 474.5 216.55C470.1 220.99 463.57 226.58 460 228.99C456.43 231.4 449.9 235.08 445.5 237.17C441.1 239.27 433.9 241.9 429.5 243.03C425.1 244.16 416.77 245.51 411 246.02C404.23 246.63 396.23 246.6 388.5 245.96C381.9 245.4 372 243.84 366.5 242.48C361 241.13 352.9 238.64 348.5 236.95C344.1 235.25 336.9 231.92 332.5 229.54C328.1 227.15 320.68 222.39 316 218.94C311.32 215.5 303.75 209.05 299.16 204.59C294.57 200.14 287.74 192.9 283.98 188.5C280.22 184.1 276.44 178.81 275.57 176.75C274.71 174.69 274 170.53 274 167.5C274 163.85 274.76 160.43 276.25 157.33C277.49 154.75 280.52 150.9 283 148.76C285.81 146.33 289.56 144.3 293 143.34C296.56 142.35 299.91 142.06 302.5 142.52C304.7 142.92 307.85 143.93 309.5 144.78C311.15 145.62 319.48 153.33 328 161.91C340.4 174.39 345.2 178.51 352 182.48C356.68 185.2 364.77 188.89 370 190.66C375.23 192.43 382.99 194.36 387.25 194.94C391.51 195.52 397.81 195.99 401.25 195.98C404.69 195.97 410.65 195.29 414.5 194.46C418.35 193.64 423.98 191.8 427 190.39C430.37 188.81 435.05 185.23 439.08 181.16C442.7 177.5 447.28 171.57 449.27 168C451.26 164.43 454.24 157.45 455.89 152.5C457.55 147.55 459.65 139.22 460.55 134C461.72 127.23 462 122.06 461.52 116C461.15 111.33 459.97 103.45 458.91 98.5C457.84 93.55 455.59 86.58 453.9 83C452.22 79.42 449.19 74.3 447.17 71.61C445.15 68.92 441.25 65.1 438.5 63.12C435.75 61.14 431.48 58.57 429 57.4C426.52 56.23 421.35 54.44 417.5 53.43C412.34 52.07 406.82 51.58 396.5 51.56C386.17 51.53 380.67 52 375.5 53.33C371.65 54.33 363.55 57.57 357.5 60.54C351.45 63.52 342.46 69 337.51 72.72C332.57 76.45 323.1 84.9 316.47 91.5C309.84 98.1 300.58 108 295.88 113.5C291.19 119 280.02 132.5 271.06 143.5C262.1 154.5 249.48 169.57 243.02 177C236.55 184.43 225.67 195.9 218.83 202.5C212 209.1 202.6 217.36 197.95 220.86C193.3 224.36 185.9 229.34 181.5 231.93C177.1 234.52 169.68 238.25 165 240.23C160.32 242.21 153.13 244.74 149 245.87C144.88 246.99 136.78 248.4 131 249.01C125.22 249.62 117.35 249.83 113.5 249.48C109.65 249.13 103.8 248.4 100.5 247.86C97.2 247.32 91.58 245.98 88 244.88C84.42 243.78 77.9 241.2 73.5 239.15C69.1 237.09 62.17 233.18 58.1 230.45C54.03 227.73 46.65 221.68 41.71 217C36.77 212.32 29.85 204.68 26.33 200C22.82 195.32 17.27 186.1 14 179.5C10.73 172.9 6.94 164.13 5.58 160C4.22 155.88 2.4 148.45 1.54 143.5C0.68 138.55 -0.02 129.44 -0.01 123.25C0 116.1 0.71 108.45 1.96 102.25C3.04 96.89 5.09 89.35 6.53 85.5C7.97 81.65 11.26 74.45 13.86 69.5C16.45 64.55 20.56 57.8 22.97 54.5C25.39 51.2 29.47 45.88 32.05 42.68C34.62 39.47 40.5 33.83 45.11 30.14C49.73 26.45 55.98 21.83 59 19.86C62.02 17.9 66.75 15.16 69.5 13.76C72.25 12.36 77.42 10.04 81 8.6C84.58 7.15 91.1 5.07 95.5 3.97C99.9 2.87 107.1 1.59 111.5 1.12C115.9 0.65 121.08 0.2 123 0.13Z" />
</svg>